<?xml version="1.0" encoding="utf-8"?>
<!-- Generator: Adobe Illustrator 23.0.1, SVG Export Plug-In . SVG Version: 6.00 Build 0)  -->
<svg version="1.1" id="Layer_1" xmlns="http://www.w3.org/2000/svg" xmlns:xlink="http://www.w3.org/1999/xlink" x="0px" y="0px"
	 viewBox="0 0 16.9 20" style="enable-background:new 0 0 16.9 20;" xml:space="preserve">
<style type="text/css">
	.st0{fill:#92999E;}
</style>
<path class="st0" d="M16.9,7.2c0.1,0.6,0.1,1.4,0,2.3c-0.6,3.3-2.7,5-6.3,5H10c-0.2,0-0.3,0.1-0.5,0.2c-0.1,0.1-0.2,0.3-0.3,0.5
	l0,0.2l-0.6,3.9l0,0.2c0,0.2-0.1,0.4-0.3,0.5C8.2,19.9,8,20,7.8,20H5c-0.2,0-0.3-0.1-0.4-0.2c-0.1-0.1-0.1-0.2-0.1-0.4
	c0.1-0.4,0.2-1,0.3-1.9c0.1-0.8,0.2-1.5,0.3-1.9c0.1-0.4,0.2-1,0.3-1.9c0.1-0.8,0.2-1.5,0.3-1.9c0-0.3,0.2-0.4,0.5-0.4h1.5
	c1,0,1.9-0.1,2.6-0.2c1.3-0.3,2.4-0.8,3.2-1.6c0.8-0.7,1.3-1.6,1.7-2.7c0.2-0.5,0.3-1,0.4-1.5c0,0,0-0.1,0-0.1c0,0,0,0,0,0
	c0,0,0,0,0.1,0C16.4,5.8,16.7,6.4,16.9,7.2z M14.9,4.1c0,0.8-0.2,1.7-0.5,2.6c-0.6,1.7-1.7,2.9-3.4,3.5c-0.8,0.3-1.8,0.5-2.8,0.5
	c0,0-0.3,0-1,0l-1,0c-0.7,0-1.2,0.4-1.3,1.1c0,0.1-0.3,2-0.9,5.9c0,0.1-0.1,0.1-0.1,0.1H0.5c-0.2,0-0.3-0.1-0.4-0.2S0,17.3,0,17.2
	L2.6,0.7c0-0.2,0.1-0.4,0.3-0.5C3.1,0.1,3.3,0,3.5,0h6.7c0.3,0,0.6,0,1.1,0.1c0.5,0.1,0.9,0.2,1.2,0.4c0.8,0.3,1.4,0.8,1.8,1.4
	S14.9,3.2,14.9,4.1z"/>
</svg>
