<?xml version="1.0" encoding="utf-8"?>
<!-- Generator: Adobe Illustrator 23.0.1, SVG Export Plug-In . SVG Version: 6.00 Build 0)  -->
<svg version="1.1" id="Calque_1" xmlns="http://www.w3.org/2000/svg" xmlns:xlink="http://www.w3.org/1999/xlink" x="0px" y="0px"
	 viewBox="0 0 30 30" style="enable-background:new 0 0 30 30;" xml:space="preserve">
<style type="text/css">
	.st0{fill:#284E68;}
</style>
<g id="Layer_3">
</g>
<g id="Layer_1">
	<g id="slack">
		<rect x="12.9" y="12.9" transform="matrix(0.9482 -0.3176 0.3176 0.9482 -3.9657 5.5396)" class="st0" width="4.2" height="4.1"/>
		<g>
			
				<rect x="12.9" y="12.9" transform="matrix(0.9482 -0.3176 0.3176 0.9482 -3.9657 5.5396)" class="st0" width="4.2" height="4.1"/>
			<path class="st0" d="M28.7,10.9C25.6,0.6,21.2-1.8,10.9,1.2C0.6,4.3-1.8,8.8,1.2,19.1c3.1,10.3,7.5,12.7,17.9,9.6
				C29.4,25.6,31.8,21.1,28.7,10.9z M23.5,17.6l-1.9,0.6l0.7,2c0.3,0.8-0.2,1.7-1,2c-0.2,0.1-0.4,0.1-0.5,0.1
				c-0.6,0-1.2-0.4-1.4-1.1l-0.7-2l-4,1.3l0.7,2c0.3,0.8-0.2,1.7-1,2c-0.2,0.1-0.4,0.1-0.5,0.1c-0.6,0-1.2-0.4-1.4-1.1l-0.7-2
				l-1.9,0.6c-0.2,0.1-0.4,0.1-0.5,0.1c-0.6,0-1.2-0.4-1.4-1.1c-0.3-0.8,0.2-1.7,1-2l1.9-0.6l-1.3-3.9l-1.9,0.6
				c-0.2,0.1-0.4,0.1-0.5,0.1c-0.6,0-1.2-0.4-1.4-1.1c-0.3-0.8,0.2-1.7,1-2l1.9-0.6l-0.7-2c-0.3-0.8,0.2-1.7,1-2s1.7,0.2,2,1l0.7,2
				l4-1.3l-0.6-2c-0.3-0.8,0.2-1.7,1-2c0.8-0.3,1.7,0.2,2,1l0.7,2l1.9-0.6c0.8-0.3,1.7,0.2,2,1c0.3,0.8-0.2,1.7-1,2l-2,0.6l1.3,3.9
				l1.9-0.6c0.8-0.3,1.7,0.2,2,1C24.8,16.4,24.3,17.3,23.5,17.6z"/>
		</g>
	</g>
</g>
</svg>
